<svg xmlns="http://www.w3.org/2000/svg" xmlns:xlink="http://www.w3.org/1999/xlink" preserveAspectRatio="xMidYMid meet" version="1.0" viewBox="0.0 -0.0 512.0 512.0" zoomAndPan="magnify" style="fill: #55B02E;">
  <g id="__id5_sve0ddomj">
    <path d="M85.32,248.53a17,17,0,0,0,13.87-7.1l80.68-112.2,63.67,68a17,17,0,0,0,12.13,5.41A16.24,16.24,0,0,0,268,197.74l142-140.17V102.4a17.07,17.07,0,1,0,34.13,0V17.07A17.06,17.06,0,0,0,427,0H341.67a17.07,17.07,0,0,0,0,34.13H385.1l-128.62,127-65.89-70.4a17.06,17.06,0,0,0-26.31,1.69L71.48,221.5a17.06,17.06,0,0,0,13.84,27Z" style="fill: #55B02E;"/>
  </g>
  <g id="__id6_sve0ddomj">
    <path d="M0,443.73V460.8A51.26,51.26,0,0,0,51.2,512H460.8A51.26,51.26,0,0,0,512,460.8V443.73Z" style="fill: #55B02E;"/>
  </g>
  <g id="__id7_sve0ddomj">
    <path d="M153.6,341.33a34.17,34.17,0,0,0-34.13-34.13H68.27a34.18,34.18,0,0,0-34.14,34.13V409.6H153.6Z" style="fill: #55B02E;"/>
  </g>
  <g id="__id8_sve0ddomj">
    <path d="M230.4,238.93a34.17,34.17,0,0,0-34.13,34.14V409.6H315.73V273.07a34.17,34.17,0,0,0-34.13-34.14Z" style="fill: #55B02E;"/>
  </g>
  <g id="__id9_sve0ddomj">
    <path d="M392.53,170.67A34.17,34.17,0,0,0,358.4,204.8V409.6H477.87V204.8a34.17,34.17,0,0,0-34.14-34.13Z" style="fill: #55B02E;"/>
  </g>
</svg>
